<svg xmlns="http://www.w3.org/2000/svg" viewBox="0 0 1024 1024" shape-rendering="crispEdges" role="img" aria-label="CLACOROO app icon">
  <title>CLACOROO — Claude Code Control Room</title>

  <!-- Background squircle Claude Dark -->
  <rect x="0" y="0" width="1024" height="1024" rx="224" ry="224" fill="#141413"/>

  <!-- Inner glow ring (subtle orange accent) -->
  <rect x="32" y="32" width="960" height="960" rx="208" ry="208" fill="none" stroke="#d97757" stroke-width="4" stroke-opacity="0.2"/>

  <!-- Mascotte CLACOROO centrata, scalata da 14x16 → ~700x800 -->
  <!-- Pixel size = 50 (centra in 1024: offset_x = (1024 - 14*50)/2 = 162, offset_y = (1024 - 16*50)/2 = 112) -->
  <g transform="translate(162, 112) scale(50)" shape-rendering="crispEdges">

    <!-- LED tip (Anthropic green) -->
    <rect x="6" y="0" width="2" height="1" fill="#788c5d"/>

    <!-- Antenna stalk -->
    <rect x="6" y="1" width="2" height="2" fill="#faf9f5"/>

    <!-- Body fill (Claude orange #d97757) -->
    <g fill="#d97757">
      <rect x="4" y="3" width="6" height="1"/>
      <rect x="2" y="4" width="10" height="1"/>
      <rect x="1" y="5" width="12" height="6"/>
      <rect x="2" y="11" width="10" height="1"/>
      <rect x="1"  y="12" width="2" height="3"/>
      <rect x="4"  y="12" width="2" height="3"/>
      <rect x="8"  y="12" width="2" height="3"/>
      <rect x="11" y="12" width="2" height="3"/>
    </g>

    <!-- Outline (deep terracotta #9a4d35) -->
    <g fill="#9a4d35">
      <rect x="2"  y="3"  width="2" height="1"/>
      <rect x="10" y="3"  width="2" height="1"/>
      <rect x="1"  y="4"  width="1" height="1"/>
      <rect x="12" y="4"  width="1" height="1"/>
      <rect x="0"  y="5"  width="1" height="6"/>
      <rect x="13" y="5"  width="1" height="6"/>
      <rect x="1"  y="11" width="1" height="1"/>
      <rect x="12" y="11" width="1" height="1"/>
      <rect x="1"  y="15" width="2" height="1"/>
      <rect x="4"  y="15" width="2" height="1"/>
      <rect x="8"  y="15" width="2" height="1"/>
      <rect x="11" y="15" width="2" height="1"/>
    </g>

    <!-- Eyes (dark) -->
    <g fill="#141413">
      <rect x="3" y="6" width="2" height="2"/>
      <rect x="9" y="6" width="2" height="2"/>
    </g>

    <!-- Eye glints (cream highlight) -->
    <g fill="#faf9f5">
      <rect x="4"  y="6" width="1" height="1"/>
      <rect x="10" y="6" width="1" height="1"/>
    </g>

    <!-- Mouth -->
    <rect x="6" y="10" width="2" height="1" fill="#9a4d35"/>
  </g>
</svg>
