<svg xmlns="http://www.w3.org/2000/svg" viewBox="0 0 14 16" shape-rendering="crispEdges" role="img" aria-label="CLACOROO mascotte (blink)">
  <title>CLACOROO — frame blink (occhi chiusi)</title>

  <rect x="6" y="0" width="2" height="1" fill="#788c5d"/>
  <rect x="6" y="1" width="2" height="2" fill="#a8a299"/>

  <g fill="#d97757">
    <rect x="4" y="3"  width="6"  height="1"/>
    <rect x="2" y="4"  width="10" height="1"/>
    <rect x="1" y="5"  width="12" height="6"/>
    <rect x="2" y="11" width="10" height="1"/>
    <rect x="4" y="12" width="6"  height="1"/>
  </g>

  <g fill="#d97757">
    <rect x="1"  y="13" width="2" height="2"/>
    <rect x="4"  y="13" width="2" height="2"/>
    <rect x="8"  y="13" width="2" height="2"/>
    <rect x="11" y="13" width="2" height="2"/>
  </g>

  <g fill="#9a4d35">
    <rect x="3" y="3"  width="1" height="1"/>
    <rect x="10" y="3" width="1" height="1"/>
    <rect x="1" y="4"  width="1" height="1"/>
    <rect x="12" y="4" width="1" height="1"/>
    <rect x="0" y="5"  width="1" height="6"/>
    <rect x="13" y="5" width="1" height="6"/>
    <rect x="1" y="11" width="1" height="1"/>
    <rect x="12" y="11" width="1" height="1"/>
    <rect x="3" y="12" width="1" height="1"/>
    <rect x="10" y="12" width="1" height="1"/>
    <rect x="1"  y="15" width="2" height="1"/>
    <rect x="4"  y="15" width="2" height="1"/>
    <rect x="8"  y="15" width="2" height="1"/>
    <rect x="11" y="15" width="2" height="1"/>
  </g>

  <!-- Eyes CLOSED: linee orizzontali 3x1 a metà altezza occhio -->
  <g fill="#141413">
    <rect x="3" y="7" width="3" height="1"/>
    <rect x="8" y="7" width="3" height="1"/>
  </g>

  <rect x="6" y="9" width="2" height="1" fill="#9a4d35"/>
</svg>
